<svg width="571" height="571" viewBox="0 0 571 571" fill="none" xmlns="http://www.w3.org/2000/svg">
<path d="M285.5 571C443.177 571 571 443.177 571 285.5C571 127.823 443.177 0 285.5 0C127.823 0 0 127.823 0 285.5C0 443.177 127.823 571 285.5 571Z" fill="black"/>
<path d="M570.992 286.166L417.873 133.048L354.418 267.691L217.622 133.048L152.938 437.953L285.98 570.995C443.214 570.735 570.632 443.376 570.992 286.166V286.166Z" fill="black"/>
<path d="M418.063 262.047V326.73H417.874V437.953H353.19V326.73H217.622V437.953H152.938V133.048H217.622V262.047H353.19V133.048H417.874V262.047H418.063Z" fill="white"/>
<path d="M418.057 262.047V326.73H417.878V437.953H353.195V326.73H285.5V262.047H353.195V133.048H417.878V262.047H418.057Z" fill="white"/>
</svg>
