<svg width="852" height="839" viewBox="0 0 852 839" fill="none" xmlns="http://www.w3.org/2000/svg">
<rect x="4" y="4" width="844" height="830.258" rx="36" fill="black" stroke="black" stroke-width="8" stroke-linejoin="round"/>
<g filter="url(#filter0_d)">
<path d="M344.285 334.583L343.72 337.802C336.368 382.78 356.698 427.651 395.533 455.129C387.16 467.051 381.308 480.506 378.919 495.12C374.973 519.264 380.487 543.478 393.616 564.079C376.572 561.649 359.318 560.948 343.96 560.506C330.829 560.132 318.091 559.75 307.692 558.161L315.325 511.515C316.533 504.127 314.58 496.666 309.833 490.524L276.312 447.155C266.732 434.757 248.611 431.721 235.346 439.891C230.272 435.45 223.779 432.67 216.765 432.184C207.756 431.554 199.093 434.697 193.016 440.819L173.354 460.602C163.851 470.159 157.696 482.095 155.568 495.114C151.132 522.253 158.29 549.612 175.721 572.164C207.825 613.704 246.655 648.608 291.136 675.934C344.725 708.856 385.149 727.712 411.269 731.982C426.235 734.428 438.196 737.623 446.826 741.485C465.257 749.733 487.117 745.064 499.987 730.137C551.541 670.339 585.408 598.28 597.917 521.75L600.099 508.406C607.853 460.968 607.364 412.765 598.644 365.133L597.382 358.293C592.274 330.344 568.785 308.28 538.947 303.403L423.581 284.545C386.345 278.46 350.772 300.906 344.285 334.583ZM535.93 321.857C557.242 325.341 574.02 341.098 577.674 361.076L578.935 367.915C587.282 413.535 587.753 459.718 580.323 505.173L578.142 518.517C566.157 591.841 533.713 660.886 484.314 718.177C477.17 726.464 465.167 729.108 455.123 724.618C444.823 720.002 431.076 716.274 414.283 713.529C391.244 709.763 352.371 691.374 301.856 660.332C259.471 634.311 222.458 601.026 191.835 561.405C177.571 542.949 171.714 520.557 175.344 498.348C176.874 488.986 181.301 480.404 188.136 473.527L207.797 453.744C209.827 451.699 212.714 450.654 215.714 450.866C218.724 451.071 221.462 452.518 223.247 454.818L250.016 489.453C252.88 493.159 252.926 498.097 250.141 501.73C248.036 504.476 244.739 506.027 241.088 505.986C237.437 505.944 234.103 504.317 231.943 501.521L224.242 491.558C220.968 487.323 214.711 486.3 210.26 489.272C205.808 492.245 204.854 498.084 208.128 502.318L215.828 512.281C221.843 520.064 231.125 524.606 241.287 524.722C251.441 524.837 260.623 520.52 266.483 512.875C274.224 502.762 274.113 489.006 266.132 478.692L247.801 454.976C252.06 453.111 257.293 454.158 260.198 457.916L293.719 501.286C295.282 503.308 295.945 505.86 295.549 508.284L288.5 551.363C287.569 550.617 286.603 549.888 285.919 549.004C282.645 544.768 276.388 543.746 271.937 546.718C267.485 549.691 266.531 555.529 269.804 559.764C283.512 577.5 311.449 578.301 343.797 579.232C360.589 579.719 377.958 580.218 395.012 583.006C435.742 589.663 439.713 619.841 439.86 621.123C440.42 626.248 445.275 630.093 450.749 629.721C455.42 629.412 459.027 626.144 459.703 622.008C459.824 621.269 459.851 620.497 459.769 619.715C458.618 608.185 450.215 588.223 428.396 575.313C428.237 575.159 428.202 574.942 428.029 574.795C405.032 555.236 394.069 526.663 398.696 498.353C402.298 476.315 414.845 457.052 434.033 444.12C438.468 441.125 439.404 435.274 436.107 431.064C432.81 426.842 426.55 425.838 422.116 428.833C416.882 432.36 412.206 436.4 407.811 440.649C374.644 417.423 357.246 379.274 363.497 341.036L363.981 338.312C368.569 314.492 393.952 298.65 420.564 303L535.93 321.857Z" fill="#F2F2F2"/>
</g>
<g clip-path="url(#clip0)" filter="url(#filter1_d)">
<path d="M515.918 157.586L503.194 154.452L490.844 204.582L525.269 238.321L534.163 229.611L505.111 201.451L515.918 157.586ZM569.689 115.977L600.853 157.729L586.835 167.879L555.642 126.137L569.689 115.977ZM479.148 93.6705L486.86 109.183L439.861 131.67L432.165 116.162L479.148 93.6705ZM519.91 123.121C477.753 112.735 435.274 137.984 425.043 179.509C414.813 221.034 440.702 263.127 482.859 273.513C525.017 283.899 567.496 258.649 577.726 217.125C587.956 175.6 562.068 133.507 519.91 123.121ZM486.976 256.802C454.234 248.736 434.063 215.939 442.008 183.689C449.954 151.438 483.052 131.765 515.794 139.831C548.536 147.898 568.707 180.695 560.762 212.945C552.816 245.196 519.718 264.869 486.976 256.802Z" fill="#F2F2F2"/>
</g>
<defs>
<filter id="filter0_d" x="119.676" y="247.356" width="515.469" height="521.986" filterUnits="userSpaceOnUse" color-interpolation-filters="sRGB">
<feFlood flood-opacity="0" result="BackgroundImageFix"/>
<feColorMatrix in="SourceAlpha" type="matrix" values="0 0 0 0 0 0 0 0 0 0 0 0 0 0 0 0 0 0 127 0" result="hardAlpha"/>
<feOffset dy="4"/>
<feGaussianBlur stdDeviation="2"/>
<feColorMatrix type="matrix" values="0 0 0 0 1 0 0 0 0 1 0 0 0 0 1 0 0 0 0.25 0"/>
<feBlend mode="normal" in2="BackgroundImageFix" result="effect1_dropShadow"/>
<feBlend mode="normal" in="SourceGraphic" in2="effect1_dropShadow" result="shape"/>
</filter>
<filter id="filter1_d" x="394.518" y="68.7096" width="237.361" height="237.361" filterUnits="userSpaceOnUse" color-interpolation-filters="sRGB">
<feFlood flood-opacity="0" result="BackgroundImageFix"/>
<feColorMatrix in="SourceAlpha" type="matrix" values="0 0 0 0 0 0 0 0 0 0 0 0 0 0 0 0 0 0 127 0" result="hardAlpha"/>
<feOffset dy="4"/>
<feGaussianBlur stdDeviation="2"/>
<feColorMatrix type="matrix" values="0 0 0 0 1 0 0 0 0 1 0 0 0 0 1 0 0 0 0.25 0"/>
<feBlend mode="normal" in2="BackgroundImageFix" result="effect1_dropShadow"/>
<feBlend mode="normal" in="SourceGraphic" in2="effect1_dropShadow" result="shape"/>
</filter>
<clipPath id="clip0">
<rect width="189.527" height="189.527" fill="white" transform="translate(443.855 68.7096) rotate(13.84)"/>
</clipPath>
</defs>
</svg>
