<svg width="1000" height="1000" viewBox="0 0 1000 1000" fill="none" xmlns="http://www.w3.org/2000/svg">
<g filter="url(#filter0_d)">
<circle cx="500" cy="496" r="496" fill="white"/>
</g>
<path d="M459.373 166.744C389.014 174.004 320.924 199.306 274.821 236.734C255.866 252.06 225.666 283.681 215.867 298.523C194.503 330.788 189.844 353.051 201.571 367.087C209.924 377.089 206.229 376.605 306.306 377.089C356.745 377.412 398.511 378.219 399.153 378.864C399.957 379.509 399.635 380.638 398.671 381.284C397.547 381.929 354.496 389.673 303.093 398.223C251.529 406.935 207.836 414.679 205.747 415.647C200.928 417.582 197.234 426.455 198.84 432.425C199.483 435.006 201.892 438.394 204.141 440.168C208.799 443.718 210.085 443.718 408.631 441.943C473.689 441.459 518.185 441.62 521.076 442.588L525.895 444.04L520.273 445.008C517.221 445.653 482.845 448.235 443.971 450.977C288.314 461.786 293.615 461.302 288.314 466.626C282.692 472.272 282.531 481.791 288.154 487.276C291.848 491.148 292.973 491.309 311.767 491.309C322.691 491.309 346.786 490.18 365.259 488.889C498.266 479.532 689.905 481.952 769.58 493.729C791.106 496.956 797.531 496.794 801.386 492.922C807.33 486.953 804.92 474.854 797.21 471.95C795.121 471.143 765.725 469.207 731.991 467.755C698.097 466.303 669.825 464.529 669.183 463.883C668.38 463.238 673.038 462.109 679.624 461.625C704.844 459.366 707.093 458.882 711.751 454.204C717.297 448.634 717.668 442.222 712.866 436.016C712.165 435.111 711.209 434.446 710.16 433.989L707.425 432.796C705.93 432.144 704.356 431.687 702.743 431.436L676.893 427.423C660.026 426.133 605.25 421.938 554.81 417.905C504.531 414.033 460.677 410.484 457.625 410.323C446.862 409.516 452.163 406.612 466.46 405.483C485.736 404.031 586.937 399.998 690.547 396.771C770.705 394.351 775.203 394.029 782.11 390.802C794.64 384.672 800.422 371.443 796.728 357.407C793.515 345.469 778.415 315.624 766.046 297.232C722.835 232.217 641.393 184.142 549.991 169.461C534.57 166.88 473.861 165.249 459.373 166.744ZM316.265 247.382C316.265 248.027 310.322 252.544 303.093 257.384C287.029 268.032 268.395 286.262 257.793 302.072C253.456 308.525 249.462 314.867 248.637 313.849C246.549 313.849 250.565 302.233 256.187 291.102C262.291 279.486 273.857 266.58 285.584 258.675C297.471 250.447 317.175 243.768 316.265 247.382Z" fill="#D5002B"/>
<path d="M718.376 273.793C718.376 333.382 617.238 370.73 492.477 370.73C367.717 370.73 312.096 318.209 312.096 258.62C339.912 210.573 367.717 165.898 492.478 165.898C617.238 165.898 704.889 224.903 718.376 273.793Z" fill="#D5002B"/>
<path d="M280.257 520.352C269.237 525.005 262.131 527.257 255.486 534.798C227.935 565.924 237.011 626.089 271.855 642.775C287.575 650.477 313.019 650.156 329.55 642.134C368.121 623.522 376.711 564.801 345.918 531.589C334.574 519.396 325.658 515.318 305.562 514.677C290.652 514.195 288.199 516.983 280.257 520.352ZM312.857 532.231C327.443 538.809 333.439 551.163 334.412 576.834C335.06 591.915 334.574 596.408 331.657 606.034C324.202 630.421 305.24 639.887 286.603 628.817C266.993 616.784 262.455 566.405 278.824 541.697C283.524 534.798 293.572 529.182 301.513 529.182C304.268 529.182 309.292 530.626 312.857 532.231Z" fill="#D5002B"/>
<path d="M321.854 639.761C332.642 634.737 343.147 633.825 349.497 626.046C375.828 593.935 364.841 533.891 329.698 518.29C313.838 511.078 288.586 512.227 272.437 520.81C234.754 540.73 231.212 599.321 262.875 631.626C274.539 643.486 278.492 642.822 298.466 642.812C313.285 642.81 314.08 643.399 321.854 639.761ZM290.331 633.175C275.633 627.052 265.701 612.597 263.892 586.884C262.753 571.78 264.362 565.11 266.942 555.361C273.543 530.661 300.952 519.442 319.82 529.939C339.685 541.369 344.412 596.146 328.972 621.458C324.532 628.529 312.451 636.452 304.567 636.711C302.099 640.246 293.923 634.668 290.331 633.175Z" fill="#D5002B"/>
<path d="M398.873 518.618C385.283 523.634 374.731 538.521 374.731 552.437C374.891 559.719 380.007 569.589 386.882 575.576C390.24 578.651 399.673 584.314 407.667 588.036C430.211 598.716 438.365 607.454 436.606 619.104C434.528 631.079 425.574 637.389 410.705 637.389C400.312 637.389 391.039 633.02 387.042 625.901C384.888 622.117 386.581 621.271 380.647 621.37C376.649 621.37 377.09 622.441 376.649 632.697C376.01 647.584 377.769 648.716 404.789 649.849C429.411 650.82 440.123 648.393 449.876 639.493C461.228 629.137 464.426 609.557 457.231 594.347C452.115 583.182 446.679 578.651 428.932 570.398C404.309 558.748 396.955 549.848 402.711 538.683C406.388 531.401 413.423 528.327 423.975 529.136C431.33 529.783 433.568 530.754 437.405 534.961C440.123 538.197 438.212 540.139 445.879 540.139C449.876 540.139 449.215 540.015 449.215 530.704C449.215 522.24 449.215 520.547 444.28 519.265C436.926 515.705 407.667 515.22 398.873 518.618Z" fill="#D5002B"/>
<path d="M473.9 518.762C473.259 519.568 474.22 524.9 473.9 530.703C473.419 541.018 471.817 541.167 476.143 541.65C479.507 542.134 480.071 541.383 480.551 538.32C481.032 534.774 482.07 534.719 494.246 534.719H507.063V551.017V559.87V585.166C507.063 642.909 505.571 639.529 516.084 645.815C520.317 647.508 523.404 648.354 532.056 648.354H544.016V643.276C544.016 639.569 544.016 639.044 540.631 639.044C534.382 639.044 533.424 634.478 534.706 584.027C535.552 542.552 535.901 535.525 537.983 534.719C539.425 534.236 545.353 534.236 551.441 534.88C561.202 534.88 564.85 534.797 564.85 537.215C564.85 539.471 563.457 541.973 567.142 541.973C571.948 541.973 571.948 541.811 571.948 533.43C571.948 518.923 571.806 516.888 521.179 518.006C493.784 517.523 474.38 517.956 473.9 518.762Z" fill="#D5002B"/>
<rect x="472.917" y="518.033" width="99.8771" height="8.46416" rx="1" fill="#D5002B"/>
<rect x="474.609" y="526.47" width="98.1843" height="8.46416" rx="1" fill="#D5002B"/>
<rect x="481.383" y="518.006" width="25.3925" height="8.46416" rx="1" transform="rotate(89.7282 481.383 518.006)" fill="#D5002B"/>
<rect x="572.795" y="518.006" width="25.3925" height="8.46416" rx="1" transform="rotate(89.7282 572.795 518.006)" fill="#D5002B"/>
<path d="M348.251 676.76C281.495 679.146 232.379 682.526 220.752 685.707C204.714 690.082 195.292 702.409 195.292 718.514C195.292 734.421 204.113 745.953 219.95 750.725C226.966 752.713 231.978 751.918 269.466 742.771C345.044 724.081 409.796 713.345 485.373 706.584C525.067 703.006 623.899 701.813 665.797 704.397C703.085 706.584 760.018 712.947 776.056 716.526C787.282 719.111 797.907 718.912 800.714 716.128C804.122 712.748 803.721 705.789 799.712 702.011C790.891 694.257 742.377 687.099 653.769 680.538C590.42 675.766 433.251 673.976 348.251 676.76Z" fill="#D5002B"/>
<path d="M88.6489 516.972C88.6505 520.579 89.8533 520.982 91.459 520.982C93.0648 520.982 94.6706 522.185 95.2728 523.389C95.6742 524.792 95.6742 549.859 95.0721 578.936C94.0685 628.868 93.8677 631.876 90.2547 632.879C87.6453 633.481 86.6417 635.286 87.0431 638.093C87.6453 641.703 83.5721 641.703 96.4771 641.703C101.495 641.502 106.714 640.098 108.119 638.895C110.126 637.291 110.729 627.465 110.729 597.585C110.729 576.129 111.331 558.883 111.933 559.685C112.535 560.286 119.962 576.53 128.192 595.58C136.421 614.631 144.45 633.28 146.056 636.689C150.271 646.515 154.888 646.643 160.307 633.681C180.179 586.155 190.215 563.094 191.018 563.094C191.62 563.094 192.022 579.939 192.022 600.393C192.022 644.309 191.62 643.307 213.499 643.307C225.944 643.307 227.148 643.307 227.148 639.096C227.463 634.845 227.463 634.845 223.134 633.882C219.32 632.879 219.119 631.074 219.119 581.142C219.119 552.666 219.722 528.001 220.324 526.196C220.926 524.391 223.335 522.987 225.342 522.987C227.751 522.987 228.309 522.271 228.309 518.886C228.309 514.875 228.309 517.162 209.688 516.316H190.221L182.989 533.014C178.975 542.439 171.347 561.089 165.727 574.524C160.307 588.16 155.49 599.19 154.888 599.19C154.286 599.19 147.06 581.342 138.83 559.685C130.6 537.827 122.17 518.375 120.363 516.57C117.553 513.763 113.539 512.961 102.7 512.961C90.054 512.961 88.6469 512.312 88.6489 516.972Z" fill="#D5002B"/>
<rect x="191.91" y="516.316" width="37.2423" height="8.46416" rx="1" fill="#D5002B"/>
<rect x="213.918" y="634.813" width="13.5427" height="8.46416" rx="1" fill="#D5002B"/>
<rect x="85.2622" y="633.122" width="13.5427" height="8.46416" rx="1" fill="#D5002B"/>
<path d="M699.022 524.572C697.214 526.47 696.367 530.702 696.367 534.935L697.214 538.32V540.859L700.301 542.065C704.456 542.065 705.885 540.706 706.524 538.32C707.324 535.299 708.932 535.704 730.828 535.704C744.254 535.704 753.924 535.85 753.924 536.627C753.924 537.582 739.299 562.102 721.079 590.726C694.707 632.072 686.901 643.82 689.596 645.815C689.44 649.745 696.785 647.815 734.344 648.292C757.999 648.451 778.776 648.292 780.694 647.974C790.32 647.508 788.627 627.194 784.535 628.573C782.777 628.573 787.78 628.887 779.096 628.573C777.097 628.501 776.777 628.04 776.777 629.733C776.777 633.391 773.023 634.298 749.048 634.298C729.378 634.298 726.832 633.98 727.632 631.754C728.111 630.322 742.975 606.469 760.556 578.481C788.046 535.068 791.328 527.837 790.923 524.572C790.32 519.699 787.78 521.392 745.532 521.392C704.297 521.392 702.292 521.392 699.022 524.572Z" fill="#D5002B"/>
<path d="M786.776 628.044C787.329 628.042 787.779 628.49 787.779 629.044L787.779 634.812L787.347 640.656C787.308 641.176 786.876 641.579 786.354 641.582L776.994 641.626C776.441 641.629 775.991 641.183 775.989 640.631L775.934 629.082C775.931 628.529 776.378 628.079 776.931 628.077L786.776 628.044Z" fill="#D5002B"/>
<path d="M705.52 531.565C706.073 531.563 706.523 532.012 706.523 532.566L706.522 537.036L706.164 541.588C706.123 542.107 705.692 542.507 705.172 542.51L697.426 542.547C696.873 542.549 696.424 542.104 696.421 541.551L696.378 532.598C696.376 532.046 696.822 531.596 697.375 531.594L705.52 531.565Z" fill="#D5002B"/>
<ellipse cx="693.099" cy="644.691" rx="4.14842" ry="2.96552" transform="rotate(-15.9783 693.099 644.691)" fill="#D5002B"/>
<path d="M851.632 523.335C844.665 541.357 819.389 604.916 813.394 619.881C806.589 636.776 805.292 638.868 801.89 638.868C797.155 638.868 798.001 639.673 798.001 644.5V648.355H808.158C819.338 648.355 820.523 647.235 828.786 627.443L835.106 612.318H851.794H868.483L872.21 622.777C879.987 645.304 880.96 646.914 885.496 649.327C888.251 650.775 894.945 650.048 901.264 650.048L911.421 650.048V646.27C911.421 640.737 911.505 641.282 908.035 640.737C904.957 640.255 902.023 633.075 885.982 586.572C861.192 514.324 863.175 520.546 857.79 519.795C854.711 519.7 852.605 520.76 851.632 523.335ZM861.482 582.335C864.075 589.576 873.332 601.802 864.433 596.388C864.868 596.724 858.815 599.263 852.172 599.263C845.529 599.263 840.322 597.192 840.322 596.388C837.783 600.956 840.445 588.241 843.708 579.795C848.063 570.466 854.314 563.711 854.711 565.406C855.359 566.533 858.728 575.094 861.482 582.335Z" fill="#D5002B"/>
<rect x="854.849" y="563.484" width="38.8827" height="7.03737" rx="1" transform="rotate(114.231 854.849 563.484)" fill="#D5002B"/>
<rect x="858.245" y="560.328" width="38.8827" height="7.60062" rx="1" transform="rotate(66.5358 858.245 560.328)" fill="#D5002B"/>
<rect x="833.551" y="596.519" width="38.8827" height="7.91953" rx="1" transform="rotate(-0.143155 833.551 596.519)" fill="#D5002B"/>
<path d="M619.652 523.335C612.685 541.357 587.408 604.916 581.413 619.881C574.608 636.777 573.312 638.868 569.909 638.868C565.174 638.868 566.021 639.673 566.021 644.5V648.356H576.178C587.358 648.356 588.543 647.236 596.806 627.444L603.125 612.318H619.814H636.503L640.23 622.777C648.007 645.305 648.979 646.914 653.516 649.328C656.271 650.776 662.964 650.048 669.284 650.048L679.441 650.048V646.27C679.441 640.738 679.525 641.282 676.055 640.738C672.976 640.255 670.043 633.076 654.002 586.573C629.212 514.324 631.195 520.547 625.809 519.795C622.731 519.7 620.624 520.76 619.652 523.335ZM629.502 582.335C632.094 589.576 641.352 601.803 632.452 596.388C632.888 596.724 626.835 599.263 620.191 599.263C613.548 599.263 608.342 597.193 608.342 596.388C605.802 600.956 608.465 588.241 611.727 579.796C616.083 570.467 622.334 563.711 622.731 565.407C623.379 566.533 626.747 575.094 629.502 582.335Z" fill="#D5002B"/>
<rect x="622.869" y="563.484" width="38.8827" height="7.03737" rx="1" transform="rotate(114.231 622.869 563.484)" fill="#D5002B"/>
<rect x="626.263" y="560.328" width="38.8827" height="7.60062" rx="1" transform="rotate(66.5358 626.263 560.328)" fill="#D5002B"/>
<rect x="601.571" y="596.519" width="38.8827" height="7.91953" rx="1" transform="rotate(-0.143155 601.571 596.519)" fill="#D5002B"/>
<defs>
<filter id="filter0_d" x="0" y="0" width="1000" height="1000" filterUnits="userSpaceOnUse" color-interpolation-filters="sRGB">
<feFlood flood-opacity="0" result="BackgroundImageFix"/>
<feColorMatrix in="SourceAlpha" type="matrix" values="0 0 0 0 0 0 0 0 0 0 0 0 0 0 0 0 0 0 127 0" result="hardAlpha"/>
<feOffset dy="4"/>
<feGaussianBlur stdDeviation="2"/>
<feColorMatrix type="matrix" values="0 0 0 0 0 0 0 0 0 0 0 0 0 0 0 0 0 0 0.25 0"/>
<feBlend mode="normal" in2="BackgroundImageFix" result="effect1_dropShadow"/>
<feBlend mode="normal" in="SourceGraphic" in2="effect1_dropShadow" result="shape"/>
</filter>
</defs>
</svg>
